# xmcd CD database file
#
# Track frame offsets:
#	150
#	12309
#	28773
#	45803
#	55455
#	76187
#	98638
#	114773
#	141145
#	163161
#	177075
#	197946
#	216174
#
# Disc length: 3134 seconds
#
# Revision: 0
# Processed by: cddbd v1.4PL0 Copyright (c) Steve Scherf et al.
# Submitted via: CDex 1.40Release
#
DISCID=a40c3c0d
DTITLE=Tommy Emmanuel and Jim Nichols - Chet Lag
DYEAR=2001
DGENRE=Country
TTITLE0=Avalon
TTITLE1=Trambone
TTITLE2=Nine Pound Hammer
TTITLE3=Moms Rag
TTITLE4=Lover Come Back
TTITLE5=House of the Rising Sun
TTITLE6=Crazy 'Bout You
TTITLE7=Birth of the Blues
TTITLE8=Blue Moon
TTITLE9=Who's Sorry Now
TTITLE10=Anytime
TTITLE11=I'll See You In My Dreams
TTITLE12=Stomping at the Savoy
EXTD=YEAR: 2001 ID3G: 2
EXTT0=
EXTT1=
EXTT2=
EXTT3=
EXTT4=
EXTT5=
EXTT6=
EXTT7=
EXTT8=
EXTT9=
EXTT10=
EXTT11=
EXTT12=
PLAYORDER=
